<?xml version="1.0" encoding="UTF-8" standalone="no"?>
<!-- Created with Inkscape (http://www.inkscape.org/) -->

<svg
   xmlns:dc="http://purl.org/dc/elements/1.1/"
   xmlns:cc="http://creativecommons.org/ns#"
   xmlns:rdf="http://www.w3.org/1999/02/22-rdf-syntax-ns#"
   xmlns:svg="http://www.w3.org/2000/svg"
   xmlns="http://www.w3.org/2000/svg"
   xmlns:sodipodi="http://sodipodi.sourceforge.net/DTD/sodipodi-0.dtd"
   xmlns:inkscape="http://www.inkscape.org/namespaces/inkscape"
   width="210mm"
   height="297mm"
   id="svg2"
   version="1.1"
   inkscape:version="0.48+devel r10191"
   sodipodi:docname="bee1.svg"
   inkscape:export-filename="/Users/tomk32/Arbeit/Eigenes/Bee Pilot/graphics/bee1-small.png"
   inkscape:export-xdpi="46.259998"
   inkscape:export-ydpi="46.259998">
  <defs
     id="defs4">
    <filter
       inkscape:collect="always"
       id="filter973">
      <feGaussianBlur
         inkscape:collect="always"
         stdDeviation="0.24036243"
         id="feGaussianBlur975" />
    </filter>
    <filter
       inkscape:collect="always"
       id="filter977">
      <feGaussianBlur
         inkscape:collect="always"
         stdDeviation="0.2293753"
         id="feGaussianBlur979" />
    </filter>
    <filter
       inkscape:collect="always"
       id="filter985">
      <feGaussianBlur
         inkscape:collect="always"
         stdDeviation="0.21615224"
         id="feGaussianBlur987" />
    </filter>
    <filter
       inkscape:collect="always"
       id="filter989">
      <feGaussianBlur
         inkscape:collect="always"
         stdDeviation="0.19511598"
         id="feGaussianBlur991" />
    </filter>
    <filter
       inkscape:collect="always"
       id="filter993">
      <feGaussianBlur
         inkscape:collect="always"
         stdDeviation="0.14559682"
         id="feGaussianBlur995" />
    </filter>
    <filter
       inkscape:collect="always"
       id="filter997">
      <feGaussianBlur
         inkscape:collect="always"
         stdDeviation="0.09875"
         id="feGaussianBlur999" />
    </filter>
  </defs>
  <sodipodi:namedview
     id="base"
     pagecolor="#ffffff"
     bordercolor="#666666"
     borderopacity="1.0"
     inkscape:pageopacity="0.0"
     inkscape:pageshadow="2"
     inkscape:zoom="0.98994949"
     inkscape:cx="286.14976"
     inkscape:cy="774.92918"
     inkscape:document-units="px"
     inkscape:current-layer="layer1"
     showgrid="false"
     inkscape:window-width="1041"
     inkscape:window-height="709"
     inkscape:window-x="0"
     inkscape:window-y="0"
     inkscape:window-maximized="0"
     showguides="true"
     inkscape:guide-bbox="true">
    <sodipodi:guide
       orientation="1,0"
       position="328.80465,629.32504"
       id="guide1001" />
    <sodipodi:guide
       orientation="0,1"
       position="362.5,759.64286"
       id="guide1033" />
    <sodipodi:guide
       orientation="0,1"
       position="328.80465,823.57143"
       id="guide1146" />
  </sodipodi:namedview>
  <metadata
     id="metadata7">
    <rdf:RDF>
      <cc:Work
         rdf:about="">
        <dc:format>image/svg+xml</dc:format>
        <dc:type
           rdf:resource="http://purl.org/dc/dcmitype/StillImage" />
        <dc:title></dc:title>
      </cc:Work>
    </rdf:RDF>
  </metadata>
  <g
     inkscape:label="Ebene 1"
     inkscape:groupmode="layer"
     id="layer1">
    <path
       sodipodi:type="arc"
       style="fill:#000000;fill-opacity:1;stroke:none"
       id="path3071"
       sodipodi:cx="338.90619"
       sodipodi:cy="297.27316"
       sodipodi:rx="29.7995"
       sodipodi:ry="29.7995"
       d="m 368.70569,297.27316 a 29.7995,29.7995 0 1 1 -59.599,0 29.7995,29.7995 0 1 1 59.599,0 z"
       transform="translate(-10.606602,2.0203051)" />
    <path
       sodipodi:nodetypes="ccccc"
       inkscape:connector-curvature="0"
       id="path958"
       d="m 300.7623,311.2597 c -32.45076,49.20533 12.69131,111.27738 25.39043,127.36047 1.09146,1.19659 4.9962,1.39569 6.37205,-0.12806 11.79239,-15.29815 50.57437,-71.10596 22.87985,-127.23241 -16.40052,8.68278 -37.96275,8.83052 -54.64233,0 z"
       style="fill:#fdbe00;fill-opacity:1;stroke:none" />
    <path
       style="fill:#000000;fill-opacity:1;stroke:none;filter:url(#filter993)"
       d="m 336.59375,413.28125 c -2.49382,0.0364 -5.26772,0.22142 -8.40625,0.59375 -7.49092,0.25582 -14.9657,0.92511 -22.3125,2.34375 1.31525,2.70155 2.66793,5.29694 4,7.78125 6.05104,0.93756 12.17753,1.41548 18.3125,1.625 5.97747,-0.21673 12.10723,-1.22938 18.46429,1.12054 1.29391,-2.62217 3.35702,-6.02133 4.52678,-9.35268 -3.09257,-1.52931 -7.34219,-4.21731 -14.58482,-4.11161 z"
       id="path3857"
       inkscape:connector-curvature="0"
       sodipodi:nodetypes="sccccccs"
       transform="matrix(1,0,0,0.91698375,0,25.839613)" />
    <path
       style="fill:#000000;fill-opacity:1;stroke:none;filter:url(#filter977)"
       d="m 345.8125,327.16071 c -9.21657,1.94004 -29.68309,0.78549 -35.625,-0.75446 -5.30227,-1.37418 -10.37742,-1.344 -15.58928,-2.78571 -1.20563,4.00519 -2.7922,7.70494 -3.37054,12.66071 5.16812,3.56983 12.6722,5.21179 18.95982,5.59375 7.45459,0.45285 31.83322,1.18693 39.09375,1.03125 5.02895,-0.10783 11.1157,-0.39816 14.70536,-2.90179 -0.63607,-5.24533 -2.55636,-11.97942 -4.01786,-17.30357 -4.59625,2.50462 -9.5702,3.36268 -14.15625,4.45982 z"
       id="path3872"
       inkscape:connector-curvature="0"
       sodipodi:nodetypes="csccssccc" />
    <path
       style="fill:#000000;fill-opacity:1;stroke:none;filter:url(#filter989)"
       d="m 337.4375,392.03125 c -4.23206,0.0593 -8.46294,0.2508 -12.6875,0.5 -9.20808,0.54317 -18.36792,1.55543 -27.40625,3.375 1.01314,2.86783 2.06431,5.66685 3.1875,8.40625 8.00365,1.43967 16.09502,2.30204 24.21875,2.78125 5.63275,0.33227 11.29507,0.5356 16.9375,0.5 4.52305,-0.0285 9.05743,-0.15757 13.5625,-0.5625 1.65798,-4.40814 3.21055,-9.02725 4.5625,-13.84375 -0.98951,-0.18273 -1.96776,-0.36304 -2.96875,-0.46875 -5.02831,-0.53101 -10.10008,-0.6556 -15.15625,-0.6875 -1.41061,-0.009 -2.83931,-0.0198 -4.25,0 z"
       id="path3855"
       inkscape:connector-curvature="0"
       transform="matrix(1,0,0,0.91698375,0,25.839613)" />
    <path
       style="fill:#000000;fill-opacity:1;stroke:none;filter:url(#filter973)"
       d="m 339.59375,345.96875 c -3.89335,-0.0104 -7.79793,0.0325 -11.6875,0.1875 -14.79485,0.5897 -24.97915,1.65073 -38.59375,4.0625 -0.12226,4.28673 0.0294,8.56133 0.4375,12.8125 12.71081,1.67975 25.49458,2.62478 38.3125,3.03125 7.72516,0.24498 15.45859,0.11085 23.1875,0.15625 2.24986,-0.23846 7.93887,-0.82936 13.59375,-1.4375 0.39902,-5.61269 0.44507,-11.36668 0.0312,-17.1875 -5.45409,-0.64308 -10.93698,-1.28159 -13.625,-1.59375 -3.8926,0.0227 -7.7629,-0.0209 -11.65625,-0.0312 z"
       id="path3874"
       inkscape:connector-curvature="0"
       transform="matrix(1,0,0,0.92719045,0,25.18983)" />
    <path
       style="fill-opacity:1;stroke:none;opacity:1;stroke-opacity:1;stroke-width:1;stroke-miterlimit:4;stroke-dasharray:none;fill:#000000;stroke-linejoin:round;stroke-linecap:round"
       id="path3880" />
    <path
       style="fill:#000000;fill-opacity:1;stroke:none;filter:url(#filter997)"
       d="m 329.28125,431.4375 c -1.29006,0.14217 -10.17567,1.53526 -12.125,2.03125 -0.54998,0.13994 -1.09334,0.33116 -1.625,0.53125 1.17661,1.95893 4.39725,6.99991 5.49107,8.71429 1.11581,0.20943 3.0275,-1.91346 5.04018,-2.08483 2.22651,0.0693 8.22453,-1.02418 11.96875,1.05804 1.32513,-2.11971 2.74357,-4.46792 4.20998,-7.03703 1.07198,-1.65036 -9.00708,-3.643 -12.95998,-3.21297 z"
       id="path881"
       inkscape:connector-curvature="0"
       sodipodi:nodetypes="cscccccc"
       transform="matrix(1,0,0,0.91698375,0,25.839613)" />
    <path
       style="fill:#000000;fill-opacity:1;stroke:none;filter:url(#filter985)"
       d="m 327.21875,373.21875 c -0.89819,-0.009 -1.79017,0.0152 -2.6875,0.0625 -3.71957,0.19604 -7.39583,0.8976 -11.09375,1.34375 -2.19215,0.38781 -11.93949,2.22023 -15.03125,2.4375 -1.5739,0.1106 -3.17415,-0.203 -4.75,-0.125 -0.57363,0.0284 -1.1494,0.0994 -1.71875,0.15625 0.51466,2.39677 1.08586,4.77595 1.71875,7.125 7.2e-4,0.003 0.0305,-0.003 0.0312,0 1.56557,0.0726 3.1552,-0.23488 4.71875,-0.125 3.09176,0.21727 12.8391,2.04969 15.03125,2.4375 3.69792,0.44615 7.37418,1.14771 11.09375,1.34375 3.5893,0.18918 7.18697,-0.1905 10.78125,-0.1875 7.49251,0.007 14.03931,0.59753 21.5,-0.25 1.58507,-0.18007 3.13414,-0.52983 4.6875,-0.90625 0.86751,-3.71358 1.60317,-7.52126 2.1875,-11.40625 -2.28642,-0.50118 -4.55106,-1.17351 -6.875,-1.4375 -7.46069,-0.84754 -14.00749,-0.22575 -21.5,-0.21875 -2.69571,0.002 -5.39919,-0.22366 -8.09375,-0.25 z"
       id="path889"
       inkscape:connector-curvature="0"
       transform="matrix(1,0,0,0.91698375,0,25.839613)" />
    <path
       style="fill:#a6dcff;fill-opacity:0.37984499;stroke:none"
       d="m 312.24917,292.64771 c -25.17605,12.47002 -59.8994,18.29723 -64.05928,16.71064 -23.4469,-2.71712 -34.75782,-17.31664 -35.90301,-30.54915 -0.24758,-2.86086 4.26571,-5.30068 8.87712,-7.54271 5.50252,0.14242 60.52946,-6.01474 91.08517,21.38122 z"
       id="path1003"
       inkscape:connector-curvature="0"
       sodipodi:nodetypes="ccscc" />
    <path
       sodipodi:nodetypes="cccc"
       inkscape:connector-curvature="0"
       id="path1005"
       d="m 311.3941,293.56322 c -19.77662,19.95546 -38.95226,24.22037 -43.4018,24.0674 -28.04821,6.11443 -41.59537,-2.00116 -42.69949,-17.07824 0.59999,-4.20762 48.31669,-23.00521 86.10129,-6.98916 z"
       style="fill:#a6dcff;fill-opacity:0.37984499;stroke:none" />
    <path
       transform="matrix(0.84419681,0,0,0.56090454,42.701127,98.980176)"
       d="m 368.70569,297.27316 a 29.7995,29.7995 0 1 1 -59.599,0 29.7995,29.7995 0 1 1 59.599,0 z"
       sodipodi:ry="29.7995"
       sodipodi:rx="29.7995"
       sodipodi:cy="297.27316"
       sodipodi:cx="338.90619"
       id="path1007"
       style="fill:#000000;fill-opacity:1;stroke:none"
       sodipodi:type="arc" />
    <path
       sodipodi:nodetypes="ccscc"
       inkscape:connector-curvature="0"
       id="path1029"
       d="m 345.70161,291.80381 c 25.17605,12.47002 59.8994,18.29723 64.05928,16.71064 24.65067,-2.85662 35.88724,-18.84704 35.99927,-32.57464 0.0176,-2.1526 -3.45269,-4.24956 -7.18766,-5.87437 -5.14539,-2.00043 -62.31518,-5.65759 -92.87089,21.73837 z"
       style="fill:#a6dcff;fill-opacity:0.37984499;stroke:none" />
    <path
       style="fill:#a6dcff;fill-opacity:0.37984499;stroke:none"
       d="m 346.55668,292.71932 c 19.77662,19.95546 38.95226,24.22037 43.4018,24.0674 28.04821,6.11443 41.59537,-2.00116 42.69949,-17.07824 -0.59999,-4.20762 -48.31669,-23.00521 -86.10129,-6.98916 z"
       id="path1031"
       inkscape:connector-curvature="0"
       sodipodi:nodetypes="cccc" />
    <path
       style="fill:#000000;fill-opacity:1;stroke:none"
       id="path1059"
       d="m 295.29765,321.18699 c -0.32949,0.29362 -0.66546,0.58011 -0.98848,0.88085 -2.43127,2.26364 -4.842,4.57327 -7.08538,7.02474 -1.655,1.80852 -2.51789,2.91404 -3.99842,4.73465 -0.60877,0.94501 -0.98473,1.3354 -1.2963,2.29952 -0.3406,0.47313 -0.82384,0.37669 -0.87236,-0.26511 0.14941,-1.2702 0.47072,-1.54491 1.11879,-2.81542 0.51096,-0.75007 0.97875,-1.53143 1.53287,-2.2502 1.68525,-2.18595 3.13221,-3.69182 5.15918,-5.58059 1.8163,-1.69246 3.74536,-3.30608 5.89283,-4.56581 0.63868,-0.14913 0.61408,0.17552 0.53738,0.53737 z"
       inkscape:connector-curvature="0"
       sodipodi:nodetypes="ccsccccssccc" />
    <path
       style="fill:#000000;fill-opacity:1;stroke:none"
       id="path1061"
       d="m 281.80655,337.70895 c -0.78832,1.67531 -1.64412,3.31793 -2.49561,4.9616 -0.44391,0.85692 -0.91026,1.70244 -1.33608,2.56849 -0.54043,1.09914 -1.61971,3.50625 -2.17973,4.74537 -0.62567,1.43851 -0.46019,0.76296 -0.6272,1.99009 -0.46155,0.51545 -0.9231,0.6529 -1.38465,-0.0753 l 0,0 c 0.0809,-1.47649 -0.0273,-0.69116 0.38912,-2.34617 0.25704,-0.72039 0.47176,-1.45731 0.77112,-2.16117 0.82004,-1.92803 1.70558,-3.50335 2.74013,-5.31473 0.93536,-1.63769 1.90751,-3.25765 3.00215,-4.79499 0.53773,-0.18602 0.99537,-0.21185 1.12075,0.42684 z"
       inkscape:connector-curvature="0"
       sodipodi:nodetypes="csscccccssccc" />
    <path
       style="fill:#000000;fill-opacity:1;stroke:none"
       d="m 274.93134,353.42199 c -1.17268,4.22868 -3.54957,7.56625 -4.62222,11.82801 0.48582,1.75918 -2.69027,2.56743 -2.07684,0.33996 0.0461,-4.33179 2.54493,-8.03638 4.234,-11.86046 0.50349,-1.52091 1.30888,-0.57187 2.46506,-0.30751 z"
       id="path1063"
       inkscape:connector-curvature="0"
       sodipodi:nodetypes="ccccc" />
    <path
       style="fill:#000000;fill-opacity:1;stroke:none"
       d="m 269.1072,369.00251 c -6.26893,4.46448 -19.58938,12.21194 -20.61759,10.00863 -3.84708,-5.64007 13.09817,-8.26776 18.50538,-11.14802 1.60715,-0.71429 2.11221,1.13939 2.11221,1.13939 z"
       id="path1065"
       inkscape:connector-curvature="0"
       sodipodi:nodetypes="cccc" />
    <path
       style="fill:#000000;fill-opacity:1;stroke:none"
       d="m 299.45434,312.07293 c -2.61284,0.48571 -4.98627,1.76138 -7.45699,2.68742 -3.64026,1.5274 -7.55731,4.22726 -10.99952,4.39361 -1.2198,-0.29565 1.00588,-1.49687 1.44988,-1.90958 3.87128,-2.60787 8.38064,-4.08022 12.8667,-5.23219 1.36733,-0.25266 2.80987,-0.70213 4.18252,-0.51423 0.20569,0.14068 0.17072,0.46846 -0.0421,0.575 z"
       id="path1085"
       inkscape:connector-curvature="0"
       sodipodi:nodetypes="ccccccc" />
    <path
       style="fill:#000000;fill-opacity:1;stroke:none"
       d="m 281.18209,320.13553 c -1.65554,3.78935 -3.67634,7.41075 -5.18822,11.26445 -0.36734,0.99038 -0.91033,2.09808 -1.05283,2.97687 -0.11338,0.92632 -1.53842,0.74111 -1.40199,-0.18386 0.0656,-1.64156 0.69433,-3.20309 1.25812,-4.72798 1.26237,-2.92698 2.80224,-5.72917 4.43887,-8.46215 0.40092,-0.57863 0.8261,-1.77628 1.73224,-1.27108 0.12604,0.0951 0.1989,0.24871 0.21381,0.40375 z"
       id="path1087"
       inkscape:connector-curvature="0"
       sodipodi:nodetypes="cccccccc" />
    <path
       style="fill:#000000;fill-opacity:1;stroke:none"
       d="m 274.15915,336.25011 c -0.67559,0.91075 -4.74638,5.96766 -6.27857,9.7634 -1.37679,3.41077 -2.07955,4.02952 -2.35345,1.92508 0.12244,-0.99696 0.44497,-1.96998 0.74681,-2.92795 1.27039,-3.43342 3.76452,-6.18723 5.67345,-9.25877 0.71168,-0.77202 2.28014,-0.16904 2.21176,0.49824 z"
       id="path1089"
       inkscape:connector-curvature="0"
       sodipodi:nodetypes="cscccc" />
    <path
       style="fill:#000000;fill-opacity:1;stroke:none"
       d="m 265.50976,350.24825 c -7.33628,2.2266 -13.1658,8.90053 -21.28722,7.2379 -1.19164,-0.57317 -1.21254,-2.41608 -0.40183,-3.32644 1.40563,-1.54275 3.54181,-2.03633 5.47489,-2.59091 4.43981,-1.0983 9.03565,-1.39564 13.46833,-2.52044 0.8797,-0.38086 2.15605,-0.56864 2.57065,0.56057 0.0939,0.20116 0.1541,0.41824 0.17518,0.63932 z"
       id="path1091"
       inkscape:connector-curvature="0"
       sodipodi:nodetypes="ccccccc" />
    <path
       style="fill:#000000;fill-opacity:1;stroke:none"
       id="path1142"
       d="m 347.5,252.49835 c 1.59138,-0.73591 1.10604,-0.45098 3.22461,-1.9931 5.09689,-3.71006 2.40136,-2.09316 8.33848,-6.06629 4.61933,-3.09126 6.59375,-4.1633 11.42022,-7.01355 5.02498,-2.97103 4.02907,-2.24953 8.37461,-5.26305 0.93392,-0.64765 1.8375,-1.33854 2.77523,-1.98066 1.37795,-0.94355 0.88182,-1.01624 1.61274,-0.83165 0,0 0.51715,0.54436 0.51715,0.54436 l 0,0 c -0.006,0.088 0.0371,0.19501 -0.018,0.26387 -1.00182,1.2533 -2.71244,2.52542 -3.85296,3.43051 -4.22252,3.35086 -3.3154,2.5872 -8.23253,5.85302 -5.17516,2.98141 -6.41025,3.64139 -11.43693,6.73645 -1.64114,1.01049 -3.25966,2.05726 -4.89082,3.0838 -1.30364,0.82041 -2.57361,1.69737 -3.91355,2.45705 -2.24693,1.2739 -2.07175,1.14085 -3.91825,1.57833 0,0 0,-0.79909 0,-0.79909 z"
       inkscape:connector-curvature="0" />
    <path
       style="fill:#000000;fill-opacity:1;stroke:none"
       id="path1144"
       d="m 309.69238,253.0984 c -0.57269,-0.38691 -1.17323,-0.73548 -1.71805,-1.16073 -5.26608,-4.1103 -1.57358,-1.60979 -7.36605,-6.3494 -4.28452,-3.50576 -6.27286,-4.57795 -10.88472,-8.01343 -2.06428,-2.1624 -9.3394,-5.86588 -10.24965,-6.86931 -1.11324,-1.22719 0.32673,-2.56978 1.79909,-1.64237 2.63066,1.65702 12.87513,9.02969 15.70616,11.27817 1.62953,1.29402 3.28355,2.5612 4.84228,3.93968 2.90115,2.56568 4.22564,4.18367 6.77609,6.90885 0.43125,0.46079 0.87494,0.90977 1.31241,1.36465 l -0.21756,0.54392 z"
       inkscape:connector-curvature="0"
       sodipodi:nodetypes="csscsscssccc" />
    <g
       id="g1199"
       transform="matrix(-1,0,0,1,655.39647,0)">
      <path
         style="fill:#000000;fill-opacity:1;stroke:none"
         id="path1201"
         d="m 295.29765,321.18699 c -0.32949,0.29362 -0.66546,0.58011 -0.98848,0.88085 -2.43127,2.26364 -4.842,4.57327 -7.08538,7.02474 -1.655,1.80852 -2.51789,2.91404 -3.99842,4.73465 -0.60877,0.94501 -0.98473,1.3354 -1.2963,2.29952 -0.3406,0.47313 -0.82384,0.37669 -0.87236,-0.26511 0.14941,-1.2702 0.47072,-1.54491 1.11879,-2.81542 0.51096,-0.75007 0.97875,-1.53143 1.53287,-2.2502 1.68525,-2.18595 3.13221,-3.69182 5.15918,-5.58059 1.8163,-1.69246 3.74536,-3.30608 5.89283,-4.56581 0.63868,-0.14913 0.61408,0.17552 0.53738,0.53737 z"
         inkscape:connector-curvature="0"
         sodipodi:nodetypes="ccsccccssccc" />
      <path
         style="fill:#000000;fill-opacity:1;stroke:none"
         id="path1203"
         d="m 281.80655,337.70895 c -0.78832,1.67531 -1.64412,3.31793 -2.49561,4.9616 -0.44391,0.85692 -0.91026,1.70244 -1.33608,2.56849 -0.54043,1.09914 -1.61971,3.50625 -2.17973,4.74537 -0.62567,1.43851 -0.46019,0.76296 -0.6272,1.99009 -0.46155,0.51545 -0.9231,0.6529 -1.38465,-0.0753 l 0,0 c 0.0809,-1.47649 -0.0273,-0.69116 0.38912,-2.34617 0.25704,-0.72039 0.47176,-1.45731 0.77112,-2.16117 0.82004,-1.92803 1.70558,-3.50335 2.74013,-5.31473 0.93536,-1.63769 1.90751,-3.25765 3.00215,-4.79499 0.53773,-0.18602 0.99537,-0.21185 1.12075,0.42684 z"
         inkscape:connector-curvature="0"
         sodipodi:nodetypes="csscccccssccc" />
      <path
         style="fill:#000000;fill-opacity:1;stroke:none"
         d="m 274.93134,353.42199 c -1.17268,4.22868 -3.54957,7.56625 -4.62222,11.82801 0.48582,1.75918 -2.69027,2.56743 -2.07684,0.33996 0.0461,-4.33179 2.54493,-8.03638 4.234,-11.86046 0.50349,-1.52091 1.30888,-0.57187 2.46506,-0.30751 z"
         id="path1205"
         inkscape:connector-curvature="0"
         sodipodi:nodetypes="ccccc" />
      <path
         style="fill:#000000;fill-opacity:1;stroke:none"
         d="m 269.1072,369.00251 c -6.26893,4.46448 -19.58938,12.21194 -20.61759,10.00863 -3.84708,-5.64007 13.09817,-8.26776 18.50538,-11.14802 1.60715,-0.71429 2.11221,1.13939 2.11221,1.13939 z"
         id="path1207"
         inkscape:connector-curvature="0"
         sodipodi:nodetypes="cccc" />
      <path
         style="fill:#000000;fill-opacity:1;stroke:none"
         d="m 299.45434,312.07293 c -2.61284,0.48571 -4.98627,1.76138 -7.45699,2.68742 -3.64026,1.5274 -7.55731,4.22726 -10.99952,4.39361 -1.2198,-0.29565 1.00588,-1.49687 1.44988,-1.90958 3.87128,-2.60787 8.38064,-4.08022 12.8667,-5.23219 1.36733,-0.25266 2.80987,-0.70213 4.18252,-0.51423 0.20569,0.14068 0.17072,0.46846 -0.0421,0.575 z"
         id="path1209"
         inkscape:connector-curvature="0"
         sodipodi:nodetypes="ccccccc" />
      <path
         style="fill:#000000;fill-opacity:1;stroke:none"
         d="m 281.18209,320.13553 c -1.65554,3.78935 -3.67634,7.41075 -5.18822,11.26445 -0.36734,0.99038 -0.91033,2.09808 -1.05283,2.97687 -0.11338,0.92632 -1.53842,0.74111 -1.40199,-0.18386 0.0656,-1.64156 0.69433,-3.20309 1.25812,-4.72798 1.26237,-2.92698 2.80224,-5.72917 4.43887,-8.46215 0.40092,-0.57863 0.8261,-1.77628 1.73224,-1.27108 0.12604,0.0951 0.1989,0.24871 0.21381,0.40375 z"
         id="path1211"
         inkscape:connector-curvature="0"
         sodipodi:nodetypes="cccccccc" />
      <path
         style="fill:#000000;fill-opacity:1;stroke:none"
         d="m 274.15915,336.25011 c -0.67559,0.91075 -4.74638,5.96766 -6.27857,9.7634 -1.37679,3.41077 -2.07955,4.02952 -2.35345,1.92508 0.12244,-0.99696 0.44497,-1.96998 0.74681,-2.92795 1.27039,-3.43342 3.76452,-6.18723 5.67345,-9.25877 0.71168,-0.77202 2.28014,-0.16904 2.21176,0.49824 z"
         id="path1213"
         inkscape:connector-curvature="0"
         sodipodi:nodetypes="cscccc" />
      <path
         style="fill:#000000;fill-opacity:1;stroke:none"
         d="m 265.50976,350.24825 c -7.33628,2.2266 -13.1658,8.90053 -21.28722,7.2379 -1.19164,-0.57317 -1.21254,-2.41608 -0.40183,-3.32644 1.40563,-1.54275 3.54181,-2.03633 5.47489,-2.59091 4.43981,-1.0983 9.03565,-1.39564 13.46833,-2.52044 0.8797,-0.38086 2.15605,-0.56864 2.57065,0.56057 0.0939,0.20116 0.1541,0.41824 0.17518,0.63932 z"
         id="path1215"
         inkscape:connector-curvature="0"
         sodipodi:nodetypes="ccccccc" />
    </g>
    <g
       id="g1258">
      <path
         inkscape:transform-center-y="2.1491871"
         inkscape:transform-center-x="-0.16997983"
         style="fill:#000000;fill-opacity:1;stroke:none"
         d="m 292.30529,274.40691 c 1.58569,0.70873 3.02026,2.05243 4.51644,3.11411 2.20327,1.70094 4.5667,4.41722 6.65903,4.95375 0.74392,-0.10731 -0.6013,-1.37153 -0.86845,-1.76889 -2.33623,-2.63385 -5.06846,-4.38886 -7.78876,-5.87246 -0.82982,-0.36962 -1.70401,-0.91298 -2.54015,-0.91369 -0.12606,0.0943 -0.1071,0.37324 0.0216,0.48713 z"
         id="path1250"
         inkscape:connector-curvature="0"
         sodipodi:nodetypes="ccccccc" />
      <path
         inkscape:transform-center-y="-2.6785714"
         inkscape:transform-center-x="-0.17857143"
         style="fill:#000000;fill-opacity:1;stroke:none"
         d="m 292.30032,273.33502 c -0.83994,-2.32075 -1.95465,-4.58798 -2.68666,-6.92881 -0.17305,-0.5992 -0.46058,-1.28424 -0.48363,-1.79528 0.002,-0.53453 -1.02824,-0.59055 -1.01362,-0.0542 -0.0996,0.93204 0.20847,1.88237 0.47363,2.80475 0.63711,1.79075 1.48274,3.54244 2.40334,5.26602 0.23362,0.37104 0.42933,1.0935 1.11888,0.91088 0.0982,-0.0393 0.16363,-0.11772 0.18806,-0.20337 z"
         id="path1252"
         inkscape:connector-curvature="0"
         sodipodi:nodetypes="cccccccc" />
      <path
         style="fill:#000000;fill-opacity:1;stroke:none"
         d="m 288.36691,262.54732 c -3.39096,-2.6244 -6.08546,-10.49066 -9.83932,-8.53099 -0.5508,0.67557 1.40383,2.66916 1.77856,3.74216 2.60661,3.01127 7.69928,7.36832 7.97979,5.54237 0.0434,-0.2371 0.0712,-0.49297 0.081,-0.75354 z"
         id="path1256"
         inkscape:connector-curvature="0"
         sodipodi:nodetypes="cccccc" />
    </g>
    <g
       id="g1263"
       transform="matrix(-1,0,0,1,656.88413,0)">
      <path
         sodipodi:nodetypes="ccccccc"
         inkscape:connector-curvature="0"
         id="path1265"
         d="m 292.30529,274.40691 c 1.58569,0.70873 3.02026,2.05243 4.51644,3.11411 2.20327,1.70094 4.5667,4.41722 6.65903,4.95375 0.74392,-0.10731 -0.6013,-1.37153 -0.86845,-1.76889 -2.33623,-2.63385 -5.06846,-4.38886 -7.78876,-5.87246 -0.82982,-0.36962 -1.70401,-0.91298 -2.54015,-0.91369 -0.12606,0.0943 -0.1071,0.37324 0.0216,0.48713 z"
         style="fill:#000000;fill-opacity:1;stroke:none"
         inkscape:transform-center-x="-0.16997983"
         inkscape:transform-center-y="2.1491871" />
      <path
         sodipodi:nodetypes="cccccccc"
         inkscape:connector-curvature="0"
         id="path1267"
         d="m 292.30032,273.33502 c -0.83994,-2.32075 -1.95465,-4.58798 -2.68666,-6.92881 -0.17305,-0.5992 -0.46058,-1.28424 -0.48363,-1.79528 0.002,-0.53453 -1.02824,-0.59055 -1.01362,-0.0542 -0.0996,0.93204 0.20847,1.88237 0.47363,2.80475 0.63711,1.79075 1.48274,3.54244 2.40334,5.26602 0.23362,0.37104 0.42933,1.0935 1.11888,0.91088 0.0982,-0.0393 0.16363,-0.11772 0.18806,-0.20337 z"
         style="fill:#000000;fill-opacity:1;stroke:none"
         inkscape:transform-center-x="-0.17857143"
         inkscape:transform-center-y="-2.6785714" />
      <path
         sodipodi:nodetypes="cccccc"
         inkscape:connector-curvature="0"
         id="path1269"
         d="m 288.36691,262.54732 c -3.39096,-2.6244 -6.08546,-10.49066 -9.83932,-8.53099 -0.5508,0.67557 1.40383,2.66916 1.77856,3.74216 2.60661,3.01127 7.69928,7.36832 7.97979,5.54237 0.0434,-0.2371 0.0712,-0.49297 0.081,-0.75354 z"
         style="fill:#000000;fill-opacity:1;stroke:none" />
    </g>
  </g>
</svg>
